<?xml version="1.0" encoding="iso-8859-1"?>
<!-- Generator: Adobe Illustrator 19.0.0, SVG Export Plug-In . SVG Version: 6.00 Build 0)  -->
<svg version="1.1" id="Capa_1" xmlns="http://www.w3.org/2000/svg" xmlns:xlink="http://www.w3.org/1999/xlink" x="0px" y="0px"
	 viewBox="0 0 490 490" style="enable-background:new 0 0 490 490;" xml:space="preserve">
<g>
	<path d="M460.115,0H29.877C13.406,0,0,13.406,0,29.881v131.771c0,16.475,13.406,29.881,29.877,29.881h430.238
		c16.479,0,29.885-13.406,29.885-29.881V29.881C490,13.406,476.594,0,460.115,0z M474.688,161.652
		c0,8.034-6.535,14.569-14.572,14.569H29.877c-8.03,0-14.565-6.535-14.565-14.569V29.881c0-8.034,6.535-14.569,14.565-14.569
		h430.238c8.038,0,14.572,6.535,14.572,14.569V161.652z"/>
	<path d="M86.706,101.601c0,13.612-5.032,20.015-14.183,20.015c-8.92,0-13.952-6.748-13.952-20.015V57.226H41.068v43.003
		c0,24.588,11.44,35.339,30.879,35.339c20.135,0,32.143-11.32,32.143-35.111V57.226H86.706V101.601z"/>
	<path d="M139.919,56.654c-10.639,0-18.184,0.684-23.559,1.6v76.058h17.264v-27.563c1.607,0.228,3.664,0.344,5.951,0.344
		c10.296,0,19.096-2.516,25.047-8.12c4.576-4.348,7.088-10.752,7.088-18.299c0-7.551-3.312-13.955-8.232-17.843
		C158.334,58.714,150.67,56.654,139.919,56.654z M139.462,93.709c-2.52,0-4.351-0.112-5.839-0.456V70.494
		c1.263-0.344,3.664-0.688,7.208-0.688c8.695,0,13.608,4.232,13.608,11.324C154.439,89.021,148.726,93.709,139.462,93.709z"/>
	<polygon points="197.468,57.226 179.972,57.226 179.972,134.312 228.122,134.312 228.122,119.672 197.468,119.672 	"/>
	<path d="M265.192,55.966c-22.759,0-37.519,17.271-37.519,40.375c0,21.959,13.383,39.227,36.255,39.227
		c22.535,0,37.863-15.324,37.863-40.599C301.792,73.694,288.864,55.966,265.192,55.966z M264.849,121.729
		c-11.664,0-18.759-10.636-18.759-25.731c0-14.984,6.864-26.191,18.647-26.191c12.008,0,18.64,11.896,18.64,25.735
		C283.376,110.521,276.625,121.729,264.849,121.729z"/>
	<path d="M326.525,57.226l-23.56,77.086h18.072l5.488-19.787h22.072l5.951,19.787h18.759l-23.903-77.086H326.525z M329.044,101.489
		l4.576-16.355c1.256-4.46,2.4-10.296,3.544-14.868h0.224c1.144,4.572,2.52,10.292,3.895,14.868l4.8,16.355H329.044z"/>
	<path d="M435.888,64.89c-7.439-5.608-16.927-8.236-31.567-8.236c-8.808,0-17.159,0.572-23.559,1.6v75.714
		c4.344,0.576,10.752,1.144,19.784,1.144c15.096,0,27.447-3.2,35.567-9.952c7.439-6.288,12.815-16.468,12.815-31.223
		C448.928,80.329,443.888,70.834,435.888,64.89z M404.321,121.504c-2.176,0-4.576,0-6.064-0.344V70.722
		c1.488-0.344,4-0.688,7.896-0.688c14.976,0,24.359,8.464,24.24,24.475C430.393,112.924,420.104,121.616,404.321,121.504z"/>
	<path d="M279.812,490V357.803l50.461,51.448l49.728-48.517L245,223.082L109.991,360.733l49.728,48.517l50.461-51.448V490H279.812z
		 M159.48,387.628l-27.806-27.133L245,244.951l113.319,115.543l-27.806,27.133l-66.013-67.314v154.374h-39.006V320.314
		L159.48,387.628z"/>
</g>
<g>
</g>
<g>
</g>
<g>
</g>
<g>
</g>
<g>
</g>
<g>
</g>
<g>
</g>
<g>
</g>
<g>
</g>
<g>
</g>
<g>
</g>
<g>
</g>
<g>
</g>
<g>
</g>
<g>
</g>
</svg>
